PathFileType	4	(X/Y/Z)	C:/Users/beibeiliu/ov580/test_trc/User1\sequence.22_training_dense_left.trc
DataRate	CameraRate	NumFrames	NumMarkers	Units	OrigDataRate	OrigDataStartFrame	OrigNumFrames
120	120	8	19	mm	120	1	66
Frame#	Time	ThumbCMC			ThumbMCP			ThumbIP			ThumbTip			IndexMCP			IndexPIP			IndexTip			MiddleMCP			MiddlePIP			MiddleTip			RingMCP			RingPIP			RingTip			PinkyMCP			PinkyPIP			PinkyTip			BackHand1			BackHand2			BackHand3	
		X0	Y0	Z0	X1	Y1	Z1	X2	Y2	Z2	X3	Y3	Z3	X4	Y4	Z4	X5	Y5	Z5	X6	Y6	Z6	X7	Y7	Z7	X8	Y8	Z8	X9	Y9	Z9	X10	Y10	Z10	X11	Y11	Z11	X12	Y12	Z12	X13	Y13	Z13	X14	Y14	Z14	X15	Y15	Z15	X16	Y16	Z16	X17	Y17	Z17	X18	Y18	Z18	
0	0	-138.973	11.1132	115.302	-115.801	-3.93759	91.8197	-101.52	-10.3738	65.9747	-98.8437	-23.684	38.194	-141.609	23.9785	28.4772	-129.625	8.79214	5.25435	-117.801	-22.3233	-7.60084	-164.146	18.603	15.8984	-152.517	2.02828	-10.617	-139.813	-28.3832	-22.8675	-182.614	4.98485	15.5959	-173.227	-9.24674	-7.11253	-160.535	-34.6266	-17.3585	-205.246	-14.6956	28.5948	-196.271	-25.7826	11.6713	-173.548	-40.2998	-2.36615	-202.21	18.4397	73.4492	-211.076	15.1152	111.829	-175.836	30.8509	98.3202	
1	0.00833333	-140.588	10.373	113.002	-115.395	-2.92337	91.0527	-107.293	-10.3926	65.7071	-99.8275	-23.6815	39.759	-142.184	23.2671	27.2457	-130.126	5.48716	2.2539	-119.686	-24.2153	-7.17919	-163.165	17.8425	13.9274	-152.974	3.6191	-8.69638	-139.974	-29.1439	-22.2156	-187.937	3.68486	16.369	-172.583	-9.79141	-6.60557	-157.747	-38.6695	-18.7716	-204.936	-13.0725	32.881	-193.853	-29.4237	8.60135	-176.425	-41.7533	-3.99817	-205.015	15.3047	76.6519	-210.548	16.1513	109.619	-174.992	30.0543	96.9072	
2	0.0166667	-141.218	9.96321	114.361	-117.698	-3.25241	93.1902	-103.869	-10.4883	62.6614	-100.354	-22.4921	44.2309	-136.768	23.7553	24.9955	-131.52	7.23092	3.69046	-118.04	-18.3293	-6.21633	-166.671	18.6296	16.0211	-152.779	2.7771	-9.36541	-138.049	-25.8784	-21.5395	-184.226	6.82258	19.0546	-170.655	-12.651	-9.05833	-158.988	-37.9965	-18.0531	-206.247	-13.1441	30.5343	-195.479	-28.3945	9.76225	-175.205	-41.7684	-1.49512	-205.996	16.2628	75.6652	-209.567	15.3189	109.014	-177.111	29.2715	98.9294	
3	0.025	-137.722	12.0234	110.152	-118.21	-3.03632	89.7668	-105.626	-10.5128	64.3201	-98.7492	-22.9124	44.9964	-139.596	22.974	24.6904	-126.483	6.80134	1.6352	-123.458	-19.4196	-6.87136	-164.976	19.5856	17.3786	-152.194	1.2528	-11.1052	-140.13	-27.7423	-22.4993	-182.961	6.14421	16.1746	-171.937	-12.3681	-8.98659	-159.377	-32.973	-17.1591	-202.795	-10.98	32.4669	-192.598	-24.6501	9.59088	-175.266	-40.91	-4.2571	-203.568	16.3167	72.6746	-213.174	14.4899	106.608	-175.572	30.7206	95.9502	
4	0.0333333	-142.6	9.83942	112.458	-116.896	-2.77439	87.7694	-103.036	-10.643	65.3681	-96.8944	-23.3777	42.0433	-138.217	25.3885	27.6229	-129.886	9.76211	3.78919	-119.151	-17.1607	-7.43741	-161.625	19.6423	11.9268	-148.724	0.248661	-11.6383	-138.531	-25.2848	-22.5815	-187.208	3.32442	15.8983	-170.233	-12.5348	-10.2422	-158.638	-38.0025	-18.3059	-206.106	-14.9381	28.8934	-192.263	-23.7038	10.8067	-174.631	-41.2871	-4.44457	-205.169	17.1953	72.8323	-208.216	17.1002	106.171	-176.147	29.4022	95.279	
5	0.0416667	-141.265	11.1423	108.32	-117.916	-2.33035	88.1583	-105.649	-9.68314	61.1296	-97.0328	-23.1623	40.4317	-137.803	25.9827	28.6581	-130.953	5.44391	1.29543	-119.886	-17.8899	-6.85399	-165.345	17.5292	12.2941	-150.812	2.27632	-10.8644	-140.843	-27.9863	-22.5681	-187.774	3.48106	15.5233	-173.15	-13.9042	-10.476	-161.746	-36.0422	-18.0042	-204.856	-12.4081	29.1248	-193.887	-22.6491	11.4528	-175.58	-41.8196	-2.27629	-202.593	17.9191	76.8065	-210.271	15.4038	107.452	-173.267	30.6059	97.1361	
6	0.05	-139.246	12.4209	109.415	-115.531	-1.9045	87.7442	-107.119	-11.0421	65.5398	-99.532	-21.9217	42.3636	-140.077	23.3709	23.5588	-128.985	9.55543	4.7708	-121.803	-19.1511	-6.25141	-166.09	17.5811	11.8012	-151.667	4.29144	-9.21434	-138.15	-27.9443	-23.3145	-184.669	6.75646	18.583	-173.738	-10.8814	-8.36584	-156.784	-36.3764	-19.1959	-206.786	-13.9611	28.866	-192.685	-27.5019	8.32539	-174.583	-42.3435	-3.04635	-201.144	16.6805	77.3321	-212.153	15.0177	108.907	-177.329	31.1502	97.9995	
7	0.0583333	-140.467	12.7417	113.983	-116.619	-1.90371	90.6921	-103.23	-8.66052	62.1192	-96.2235	-21.8051	41.5808	-139.816	25.3956	24.6177	-126.888	6.69641	2.3355	-122.694	-19.2152	-6.4929	-165.002	18.9197	12.4754	-152.722	3.65952	-9.71882	-134.357	-28.2188	-22.5135	-184.553	7.19938	17.3222	-175.872	-12.2089	-8.7956	-161.217	-34.704	-17.5955	-206.122	-13.6739	26.5211	-194.491	-24.6192	10.5831	-172.486	-43.5275	-2.96731	-206.526	15.7422	76.2401	-211.897	15.9004	107.17	-175.086	33.8535	97.7882	
